G04 #@! TF.GenerationSoftware,KiCad,Pcbnew,(5.1.8-0-10_14)*
G04 #@! TF.CreationDate,2021-01-24T00:18:35+01:00*
G04 #@! TF.ProjectId,bat,6261742e-6b69-4636-9164-5f7063625858,rev?*
G04 #@! TF.SameCoordinates,Original*
G04 #@! TF.FileFunction,Soldermask,Top*
G04 #@! TF.FilePolarity,Negative*
%FSLAX46Y46*%
G04 Gerber Fmt 4.6, Leading zero omitted, Abs format (unit mm)*
G04 Created by KiCad (PCBNEW (5.1.8-0-10_14)) date 2021-01-24 00:18:35*
%MOMM*%
%LPD*%
G01*
G04 APERTURE LIST*
%ADD10C,0.300000*%
%ADD11C,0.150000*%
%ADD12O,2.100000X2.100000*%
%ADD13O,3.916000X2.916000*%
%ADD14O,3.640000X2.640000*%
%ADD15C,3.198800*%
%ADD16C,0.600000*%
%ADD17O,3.516000X3.516000*%
%ADD18O,2.030400X2.030400*%
%ADD19O,2.132000X2.132000*%
%ADD20O,1.608000X1.608000*%
G04 APERTURE END LIST*
D10*
X92757809Y-83677142D02*
X93043523Y-83772380D01*
X93138761Y-83867619D01*
X93234000Y-84058095D01*
X93234000Y-84343809D01*
X93138761Y-84534285D01*
X93043523Y-84629523D01*
X92853047Y-84724761D01*
X92091142Y-84724761D01*
X92091142Y-82724761D01*
X92757809Y-82724761D01*
X92948285Y-82820000D01*
X93043523Y-82915238D01*
X93138761Y-83105714D01*
X93138761Y-83296190D01*
X93043523Y-83486666D01*
X92948285Y-83581904D01*
X92757809Y-83677142D01*
X92091142Y-83677142D01*
X93995904Y-84153333D02*
X94948285Y-84153333D01*
X93805428Y-84724761D02*
X94472095Y-82724761D01*
X95138761Y-84724761D01*
X95519714Y-82724761D02*
X96662571Y-82724761D01*
X96091142Y-84724761D02*
X96091142Y-82724761D01*
D11*
X68263000Y-155376571D02*
X68405857Y-155424190D01*
X68453476Y-155471809D01*
X68501095Y-155567047D01*
X68501095Y-155709904D01*
X68453476Y-155805142D01*
X68405857Y-155852761D01*
X68310619Y-155900380D01*
X67929666Y-155900380D01*
X67929666Y-154900380D01*
X68263000Y-154900380D01*
X68358238Y-154948000D01*
X68405857Y-154995619D01*
X68453476Y-155090857D01*
X68453476Y-155186095D01*
X68405857Y-155281333D01*
X68358238Y-155328952D01*
X68263000Y-155376571D01*
X67929666Y-155376571D01*
X69501095Y-155900380D02*
X69167761Y-155424190D01*
X68929666Y-155900380D02*
X68929666Y-154900380D01*
X69310619Y-154900380D01*
X69405857Y-154948000D01*
X69453476Y-154995619D01*
X69501095Y-155090857D01*
X69501095Y-155233714D01*
X69453476Y-155328952D01*
X69405857Y-155376571D01*
X69310619Y-155424190D01*
X68929666Y-155424190D01*
X69929666Y-155900380D02*
X69929666Y-154900380D01*
X70929666Y-154948000D02*
X70834428Y-154900380D01*
X70691571Y-154900380D01*
X70548714Y-154948000D01*
X70453476Y-155043238D01*
X70405857Y-155138476D01*
X70358238Y-155328952D01*
X70358238Y-155471809D01*
X70405857Y-155662285D01*
X70453476Y-155757523D01*
X70548714Y-155852761D01*
X70691571Y-155900380D01*
X70786809Y-155900380D01*
X70929666Y-155852761D01*
X70977285Y-155805142D01*
X70977285Y-155471809D01*
X70786809Y-155471809D01*
X71405857Y-155900380D02*
X71405857Y-154900380D01*
X71405857Y-155376571D02*
X71977285Y-155376571D01*
X71977285Y-155900380D02*
X71977285Y-154900380D01*
X72310619Y-154900380D02*
X72882047Y-154900380D01*
X72596333Y-155900380D02*
X72596333Y-154900380D01*
X73215380Y-155900380D02*
X73215380Y-154900380D01*
X73786809Y-155900380D01*
X73786809Y-154900380D01*
X74263000Y-155376571D02*
X74596333Y-155376571D01*
X74739190Y-155900380D02*
X74263000Y-155900380D01*
X74263000Y-154900380D01*
X74739190Y-154900380D01*
X75120142Y-155852761D02*
X75263000Y-155900380D01*
X75501095Y-155900380D01*
X75596333Y-155852761D01*
X75643952Y-155805142D01*
X75691571Y-155709904D01*
X75691571Y-155614666D01*
X75643952Y-155519428D01*
X75596333Y-155471809D01*
X75501095Y-155424190D01*
X75310619Y-155376571D01*
X75215380Y-155328952D01*
X75167761Y-155281333D01*
X75120142Y-155186095D01*
X75120142Y-155090857D01*
X75167761Y-154995619D01*
X75215380Y-154948000D01*
X75310619Y-154900380D01*
X75548714Y-154900380D01*
X75691571Y-154948000D01*
X76072523Y-155852761D02*
X76215380Y-155900380D01*
X76453476Y-155900380D01*
X76548714Y-155852761D01*
X76596333Y-155805142D01*
X76643952Y-155709904D01*
X76643952Y-155614666D01*
X76596333Y-155519428D01*
X76548714Y-155471809D01*
X76453476Y-155424190D01*
X76263000Y-155376571D01*
X76167761Y-155328952D01*
X76120142Y-155281333D01*
X76072523Y-155186095D01*
X76072523Y-155090857D01*
X76120142Y-154995619D01*
X76167761Y-154948000D01*
X76263000Y-154900380D01*
X76501095Y-154900380D01*
X76643952Y-154948000D01*
D12*
X86614000Y-119126000D03*
G36*
G01*
X87614000Y-122716000D02*
X85614000Y-122716000D01*
G75*
G02*
X85564000Y-122666000I0J50000D01*
G01*
X85564000Y-120666000D01*
G75*
G02*
X85614000Y-120616000I50000J0D01*
G01*
X87614000Y-120616000D01*
G75*
G02*
X87664000Y-120666000I0J-50000D01*
G01*
X87664000Y-122666000D01*
G75*
G02*
X87614000Y-122716000I-50000J0D01*
G01*
G37*
X90678000Y-121666000D03*
G36*
G01*
X89678000Y-118076000D02*
X91678000Y-118076000D01*
G75*
G02*
X91728000Y-118126000I0J-50000D01*
G01*
X91728000Y-120126000D01*
G75*
G02*
X91678000Y-120176000I-50000J0D01*
G01*
X89678000Y-120176000D01*
G75*
G02*
X89628000Y-120126000I0J50000D01*
G01*
X89628000Y-118126000D01*
G75*
G02*
X89678000Y-118076000I50000J0D01*
G01*
G37*
G36*
G01*
X84254000Y-142610000D02*
X84254000Y-145426000D01*
G75*
G02*
X84204000Y-145476000I-50000J0D01*
G01*
X80388000Y-145476000D01*
G75*
G02*
X80338000Y-145426000I0J50000D01*
G01*
X80338000Y-142610000D01*
G75*
G02*
X80388000Y-142560000I50000J0D01*
G01*
X84204000Y-142560000D01*
G75*
G02*
X84254000Y-142610000I0J-50000D01*
G01*
G37*
D13*
X82296000Y-149098000D03*
X82296000Y-154178000D03*
X87376000Y-144018000D03*
X87376000Y-149098000D03*
X87376000Y-154178000D03*
X92456000Y-144018000D03*
X92456000Y-149098000D03*
X92456000Y-154178000D03*
D14*
X102362000Y-80010000D03*
X107442000Y-80010000D03*
G36*
G01*
X114342000Y-78740000D02*
X114342000Y-81280000D01*
G75*
G02*
X114292000Y-81330000I-50000J0D01*
G01*
X110752000Y-81330000D01*
G75*
G02*
X110702000Y-81280000I0J50000D01*
G01*
X110702000Y-78740000D01*
G75*
G02*
X110752000Y-78690000I50000J0D01*
G01*
X114292000Y-78690000D01*
G75*
G02*
X114342000Y-78740000I0J-50000D01*
G01*
G37*
X62230000Y-80010000D03*
X67310000Y-80010000D03*
G36*
G01*
X74210000Y-78740000D02*
X74210000Y-81280000D01*
G75*
G02*
X74160000Y-81330000I-50000J0D01*
G01*
X70620000Y-81330000D01*
G75*
G02*
X70570000Y-81280000I0J50000D01*
G01*
X70570000Y-78740000D01*
G75*
G02*
X70620000Y-78690000I50000J0D01*
G01*
X74160000Y-78690000D01*
G75*
G02*
X74210000Y-78740000I0J-50000D01*
G01*
G37*
X82296000Y-80010000D03*
X87376000Y-80010000D03*
G36*
G01*
X94276000Y-78740000D02*
X94276000Y-81280000D01*
G75*
G02*
X94226000Y-81330000I-50000J0D01*
G01*
X90686000Y-81330000D01*
G75*
G02*
X90636000Y-81280000I0J50000D01*
G01*
X90636000Y-78740000D01*
G75*
G02*
X90686000Y-78690000I50000J0D01*
G01*
X94226000Y-78690000D01*
G75*
G02*
X94276000Y-78740000I0J-50000D01*
G01*
G37*
D12*
X102108000Y-149098000D03*
G36*
G01*
X105698000Y-148098000D02*
X105698000Y-150098000D01*
G75*
G02*
X105648000Y-150148000I-50000J0D01*
G01*
X103648000Y-150148000D01*
G75*
G02*
X103598000Y-150098000I0J50000D01*
G01*
X103598000Y-148098000D01*
G75*
G02*
X103648000Y-148048000I50000J0D01*
G01*
X105648000Y-148048000D01*
G75*
G02*
X105698000Y-148098000I0J-50000D01*
G01*
G37*
D15*
X103563420Y-95572580D03*
X103563420Y-101023420D03*
X98112580Y-101023420D03*
X98112580Y-95572580D03*
X103713280Y-87574120D03*
X108689140Y-90446860D03*
X111561880Y-95422720D03*
X111561880Y-101173280D03*
X108689140Y-106149140D03*
X103713280Y-109021880D03*
X97962720Y-109021880D03*
X92986860Y-106149140D03*
X90114120Y-101173280D03*
X90114120Y-95422720D03*
X92986860Y-90446860D03*
X97962720Y-87574120D03*
G36*
G01*
X82330000Y-102632000D02*
X82330000Y-104632000D01*
G75*
G02*
X82280000Y-104682000I-50000J0D01*
G01*
X80280000Y-104682000D01*
G75*
G02*
X80230000Y-104632000I0J50000D01*
G01*
X80230000Y-102632000D01*
G75*
G02*
X80280000Y-102582000I50000J0D01*
G01*
X82280000Y-102582000D01*
G75*
G02*
X82330000Y-102632000I0J-50000D01*
G01*
G37*
D12*
X76200000Y-103632000D03*
G36*
G01*
X85455000Y-104682000D02*
X83455000Y-104682000D01*
G75*
G02*
X83405000Y-104632000I0J50000D01*
G01*
X83405000Y-102632000D01*
G75*
G02*
X83455000Y-102582000I50000J0D01*
G01*
X85455000Y-102582000D01*
G75*
G02*
X85505000Y-102632000I0J-50000D01*
G01*
X85505000Y-104632000D01*
G75*
G02*
X85455000Y-104682000I-50000J0D01*
G01*
G37*
X84455000Y-98552000D03*
G36*
G01*
X78367000Y-99426000D02*
X78367000Y-98826000D01*
G75*
G02*
X78437000Y-98756000I70000J0D01*
G01*
X79737000Y-98756000D01*
G75*
G02*
X79807000Y-98826000I0J-70000D01*
G01*
X79807000Y-99426000D01*
G75*
G02*
X79737000Y-99496000I-70000J0D01*
G01*
X78437000Y-99496000D01*
G75*
G02*
X78367000Y-99426000I0J70000D01*
G01*
G37*
G36*
G01*
X78367000Y-101326000D02*
X78367000Y-100726000D01*
G75*
G02*
X78437000Y-100656000I70000J0D01*
G01*
X79737000Y-100656000D01*
G75*
G02*
X79807000Y-100726000I0J-70000D01*
G01*
X79807000Y-101326000D01*
G75*
G02*
X79737000Y-101396000I-70000J0D01*
G01*
X78437000Y-101396000D01*
G75*
G02*
X78367000Y-101326000I0J70000D01*
G01*
G37*
G36*
G01*
X80467000Y-100376000D02*
X80467000Y-99776000D01*
G75*
G02*
X80537000Y-99706000I70000J0D01*
G01*
X81837000Y-99706000D01*
G75*
G02*
X81907000Y-99776000I0J-70000D01*
G01*
X81907000Y-100376000D01*
G75*
G02*
X81837000Y-100446000I-70000J0D01*
G01*
X80537000Y-100446000D01*
G75*
G02*
X80467000Y-100376000I0J70000D01*
G01*
G37*
G36*
G01*
X74015000Y-99426000D02*
X74015000Y-98826000D01*
G75*
G02*
X74085000Y-98756000I70000J0D01*
G01*
X75385000Y-98756000D01*
G75*
G02*
X75455000Y-98826000I0J-70000D01*
G01*
X75455000Y-99426000D01*
G75*
G02*
X75385000Y-99496000I-70000J0D01*
G01*
X74085000Y-99496000D01*
G75*
G02*
X74015000Y-99426000I0J70000D01*
G01*
G37*
G36*
G01*
X74015000Y-101326000D02*
X74015000Y-100726000D01*
G75*
G02*
X74085000Y-100656000I70000J0D01*
G01*
X75385000Y-100656000D01*
G75*
G02*
X75455000Y-100726000I0J-70000D01*
G01*
X75455000Y-101326000D01*
G75*
G02*
X75385000Y-101396000I-70000J0D01*
G01*
X74085000Y-101396000D01*
G75*
G02*
X74015000Y-101326000I0J70000D01*
G01*
G37*
G36*
G01*
X76115000Y-100376000D02*
X76115000Y-99776000D01*
G75*
G02*
X76185000Y-99706000I70000J0D01*
G01*
X77485000Y-99706000D01*
G75*
G02*
X77555000Y-99776000I0J-70000D01*
G01*
X77555000Y-100376000D01*
G75*
G02*
X77485000Y-100446000I-70000J0D01*
G01*
X76185000Y-100446000D01*
G75*
G02*
X76115000Y-100376000I0J70000D01*
G01*
G37*
G36*
G01*
X98179000Y-117333000D02*
X98179000Y-116733000D01*
G75*
G02*
X98249000Y-116663000I70000J0D01*
G01*
X99549000Y-116663000D01*
G75*
G02*
X99619000Y-116733000I0J-70000D01*
G01*
X99619000Y-117333000D01*
G75*
G02*
X99549000Y-117403000I-70000J0D01*
G01*
X98249000Y-117403000D01*
G75*
G02*
X98179000Y-117333000I0J70000D01*
G01*
G37*
G36*
G01*
X98179000Y-119233000D02*
X98179000Y-118633000D01*
G75*
G02*
X98249000Y-118563000I70000J0D01*
G01*
X99549000Y-118563000D01*
G75*
G02*
X99619000Y-118633000I0J-70000D01*
G01*
X99619000Y-119233000D01*
G75*
G02*
X99549000Y-119303000I-70000J0D01*
G01*
X98249000Y-119303000D01*
G75*
G02*
X98179000Y-119233000I0J70000D01*
G01*
G37*
G36*
G01*
X100279000Y-118283000D02*
X100279000Y-117683000D01*
G75*
G02*
X100349000Y-117613000I70000J0D01*
G01*
X101649000Y-117613000D01*
G75*
G02*
X101719000Y-117683000I0J-70000D01*
G01*
X101719000Y-118283000D01*
G75*
G02*
X101649000Y-118353000I-70000J0D01*
G01*
X100349000Y-118353000D01*
G75*
G02*
X100279000Y-118283000I0J70000D01*
G01*
G37*
G36*
G01*
X87029000Y-81931000D02*
X87029000Y-83931000D01*
G75*
G02*
X86979000Y-83981000I-50000J0D01*
G01*
X84979000Y-83981000D01*
G75*
G02*
X84929000Y-83931000I0J50000D01*
G01*
X84929000Y-81931000D01*
G75*
G02*
X84979000Y-81881000I50000J0D01*
G01*
X86979000Y-81881000D01*
G75*
G02*
X87029000Y-81931000I0J-50000D01*
G01*
G37*
X75819000Y-82931000D03*
G36*
G01*
X74769000Y-86598000D02*
X74769000Y-84598000D01*
G75*
G02*
X74819000Y-84548000I50000J0D01*
G01*
X76819000Y-84548000D01*
G75*
G02*
X76869000Y-84598000I0J-50000D01*
G01*
X76869000Y-86598000D01*
G75*
G02*
X76819000Y-86648000I-50000J0D01*
G01*
X74819000Y-86648000D01*
G75*
G02*
X74769000Y-86598000I0J50000D01*
G01*
G37*
X85979000Y-85598000D03*
G36*
G01*
X62704000Y-87360000D02*
X62704000Y-85360000D01*
G75*
G02*
X62754000Y-85310000I50000J0D01*
G01*
X64754000Y-85310000D01*
G75*
G02*
X64804000Y-85360000I0J-50000D01*
G01*
X64804000Y-87360000D01*
G75*
G02*
X64754000Y-87410000I-50000J0D01*
G01*
X62754000Y-87410000D01*
G75*
G02*
X62704000Y-87360000I0J50000D01*
G01*
G37*
X71374000Y-86360000D03*
X75057000Y-93091000D03*
X75057000Y-90551000D03*
D16*
X83046000Y-136068500D03*
X81546000Y-136068500D03*
X81546000Y-134568500D03*
X83046000Y-134568500D03*
X82296000Y-136068500D03*
X82296000Y-134568500D03*
X93206000Y-136068500D03*
X91706000Y-136068500D03*
X91706000Y-134568500D03*
X93206000Y-134568500D03*
X92456000Y-136068500D03*
X92456000Y-134568500D03*
D12*
X76962000Y-106426000D03*
X79502000Y-106426000D03*
X82042000Y-106426000D03*
X84582000Y-106426000D03*
X84582000Y-114046000D03*
X82042000Y-114046000D03*
X79502000Y-114046000D03*
G36*
G01*
X77962000Y-115096000D02*
X75962000Y-115096000D01*
G75*
G02*
X75912000Y-115046000I0J50000D01*
G01*
X75912000Y-113046000D01*
G75*
G02*
X75962000Y-112996000I50000J0D01*
G01*
X77962000Y-112996000D01*
G75*
G02*
X78012000Y-113046000I0J-50000D01*
G01*
X78012000Y-115046000D01*
G75*
G02*
X77962000Y-115096000I-50000J0D01*
G01*
G37*
X77470000Y-88265000D03*
X80010000Y-88265000D03*
X82550000Y-88265000D03*
X85090000Y-88265000D03*
X85090000Y-95885000D03*
X82550000Y-95885000D03*
X80010000Y-95885000D03*
G36*
G01*
X78470000Y-96935000D02*
X76470000Y-96935000D01*
G75*
G02*
X76420000Y-96885000I0J50000D01*
G01*
X76420000Y-94885000D01*
G75*
G02*
X76470000Y-94835000I50000J0D01*
G01*
X78470000Y-94835000D01*
G75*
G02*
X78520000Y-94885000I0J-50000D01*
G01*
X78520000Y-96885000D01*
G75*
G02*
X78470000Y-96935000I-50000J0D01*
G01*
G37*
D17*
X71378000Y-103132000D03*
X71378000Y-98302000D03*
X71378000Y-93472000D03*
X66548000Y-103132000D03*
X66548000Y-98302000D03*
G36*
G01*
X64790000Y-95180000D02*
X64790000Y-91764000D01*
G75*
G02*
X64840000Y-91714000I50000J0D01*
G01*
X68256000Y-91714000D01*
G75*
G02*
X68306000Y-91764000I0J-50000D01*
G01*
X68306000Y-95180000D01*
G75*
G02*
X68256000Y-95230000I-50000J0D01*
G01*
X64840000Y-95230000D01*
G75*
G02*
X64790000Y-95180000I0J50000D01*
G01*
G37*
D18*
X70612000Y-147066000D03*
X68072000Y-149606000D03*
X70612000Y-152146000D03*
D12*
X66548000Y-120650000D03*
X66548000Y-113030000D03*
X63754000Y-120650000D03*
X63754000Y-113030000D03*
X93980000Y-114300000D03*
X93980000Y-121920000D03*
X82042000Y-126238000D03*
X82042000Y-131318000D03*
X98044000Y-132588000D03*
X98044000Y-124968000D03*
X96774000Y-114300000D03*
X96774000Y-121920000D03*
X76962000Y-116840000D03*
X84582000Y-116840000D03*
X71882000Y-132334000D03*
X71882000Y-124714000D03*
X74422000Y-132334000D03*
X74422000Y-124714000D03*
X69088000Y-143256000D03*
X76708000Y-143256000D03*
X75184000Y-122174000D03*
X82804000Y-122174000D03*
X76962000Y-132334000D03*
X76962000Y-124714000D03*
X71374000Y-89154000D03*
X63754000Y-89154000D03*
D19*
X98933000Y-78994000D03*
X91694000Y-131064000D03*
X95885000Y-78994000D03*
X94996000Y-131064000D03*
X85090000Y-131064000D03*
X95758000Y-138176000D03*
X92456000Y-138176000D03*
X89154000Y-138176000D03*
X75819000Y-78994000D03*
X85598000Y-138176000D03*
G36*
G01*
X77801000Y-80010000D02*
X77801000Y-77978000D01*
G75*
G02*
X77851000Y-77928000I50000J0D01*
G01*
X79883000Y-77928000D01*
G75*
G02*
X79933000Y-77978000I0J-50000D01*
G01*
X79933000Y-80010000D01*
G75*
G02*
X79883000Y-80060000I-50000J0D01*
G01*
X77851000Y-80060000D01*
G75*
G02*
X77801000Y-80010000I0J50000D01*
G01*
G37*
X78994000Y-138176000D03*
X82296000Y-138176000D03*
G36*
G01*
X87326000Y-132080000D02*
X87326000Y-130048000D01*
G75*
G02*
X87376000Y-129998000I50000J0D01*
G01*
X89408000Y-129998000D01*
G75*
G02*
X89458000Y-130048000I0J-50000D01*
G01*
X89458000Y-132080000D01*
G75*
G02*
X89408000Y-132130000I-50000J0D01*
G01*
X87376000Y-132130000D01*
G75*
G02*
X87326000Y-132080000I0J50000D01*
G01*
G37*
G36*
G01*
X105172000Y-116044000D02*
X107172000Y-116044000D01*
G75*
G02*
X107222000Y-116094000I0J-50000D01*
G01*
X107222000Y-118094000D01*
G75*
G02*
X107172000Y-118144000I-50000J0D01*
G01*
X105172000Y-118144000D01*
G75*
G02*
X105122000Y-118094000I0J50000D01*
G01*
X105122000Y-116094000D01*
G75*
G02*
X105172000Y-116044000I50000J0D01*
G01*
G37*
D12*
X106172000Y-127254000D03*
G36*
G01*
X104378000Y-128304000D02*
X102378000Y-128304000D01*
G75*
G02*
X102328000Y-128254000I0J50000D01*
G01*
X102328000Y-126254000D01*
G75*
G02*
X102378000Y-126204000I50000J0D01*
G01*
X104378000Y-126204000D01*
G75*
G02*
X104428000Y-126254000I0J-50000D01*
G01*
X104428000Y-128254000D01*
G75*
G02*
X104378000Y-128304000I-50000J0D01*
G01*
G37*
X103378000Y-117094000D03*
G36*
G01*
X110760000Y-116044000D02*
X112760000Y-116044000D01*
G75*
G02*
X112810000Y-116094000I0J-50000D01*
G01*
X112810000Y-118094000D01*
G75*
G02*
X112760000Y-118144000I-50000J0D01*
G01*
X110760000Y-118144000D01*
G75*
G02*
X110710000Y-118094000I0J50000D01*
G01*
X110710000Y-116094000D01*
G75*
G02*
X110760000Y-116044000I50000J0D01*
G01*
G37*
X111760000Y-124714000D03*
G36*
G01*
X109966000Y-125764000D02*
X107966000Y-125764000D01*
G75*
G02*
X107916000Y-125714000I0J50000D01*
G01*
X107916000Y-123714000D01*
G75*
G02*
X107966000Y-123664000I50000J0D01*
G01*
X109966000Y-123664000D01*
G75*
G02*
X110016000Y-123714000I0J-50000D01*
G01*
X110016000Y-125714000D01*
G75*
G02*
X109966000Y-125764000I-50000J0D01*
G01*
G37*
X108966000Y-117094000D03*
X68072000Y-108966000D03*
X62992000Y-108966000D03*
D18*
X72136000Y-120650000D03*
G36*
G01*
X68580800Y-121615200D02*
X68580800Y-119684800D01*
G75*
G02*
X68630800Y-119634800I50000J0D01*
G01*
X70561200Y-119634800D01*
G75*
G02*
X70611200Y-119684800I0J-50000D01*
G01*
X70611200Y-121615200D01*
G75*
G02*
X70561200Y-121665200I-50000J0D01*
G01*
X68630800Y-121665200D01*
G75*
G02*
X68580800Y-121615200I0J50000D01*
G01*
G37*
X64770000Y-126492000D03*
G36*
G01*
X63804800Y-122936800D02*
X65735200Y-122936800D01*
G75*
G02*
X65785200Y-122986800I0J-50000D01*
G01*
X65785200Y-124917200D01*
G75*
G02*
X65735200Y-124967200I-50000J0D01*
G01*
X63804800Y-124967200D01*
G75*
G02*
X63754800Y-124917200I0J50000D01*
G01*
X63754800Y-122986800D01*
G75*
G02*
X63804800Y-122936800I50000J0D01*
G01*
G37*
D12*
X73406000Y-111252000D03*
X73406000Y-108712000D03*
X91948000Y-126492000D03*
X86868000Y-126492000D03*
X69342000Y-130810000D03*
X69342000Y-125730000D03*
X108204000Y-132080000D03*
X103124000Y-132080000D03*
X100584000Y-132588000D03*
X100584000Y-124968000D03*
X69088000Y-115316000D03*
X74168000Y-115316000D03*
X79502000Y-132334000D03*
X79502000Y-124714000D03*
D20*
X64770000Y-131826000D03*
G36*
G01*
X64016000Y-128482000D02*
X65524000Y-128482000D01*
G75*
G02*
X65574000Y-128532000I0J-50000D01*
G01*
X65574000Y-130040000D01*
G75*
G02*
X65524000Y-130090000I-50000J0D01*
G01*
X64016000Y-130090000D01*
G75*
G02*
X63966000Y-130040000I0J50000D01*
G01*
X63966000Y-128532000D01*
G75*
G02*
X64016000Y-128482000I50000J0D01*
G01*
G37*
X108966000Y-128778000D03*
G36*
G01*
X112310000Y-128024000D02*
X112310000Y-129532000D01*
G75*
G02*
X112260000Y-129582000I-50000J0D01*
G01*
X110752000Y-129582000D01*
G75*
G02*
X110702000Y-129532000I0J50000D01*
G01*
X110702000Y-128024000D01*
G75*
G02*
X110752000Y-127974000I50000J0D01*
G01*
X112260000Y-127974000D01*
G75*
G02*
X112310000Y-128024000I0J-50000D01*
G01*
G37*
D12*
X78232000Y-119380000D03*
X83312000Y-119380000D03*
M02*
