G04 #@! TF.GenerationSoftware,KiCad,Pcbnew,(5.1.8-0-10_14)*
G04 #@! TF.CreationDate,2021-01-24T00:18:35+01:00*
G04 #@! TF.ProjectId,bat,6261742e-6b69-4636-9164-5f7063625858,rev?*
G04 #@! TF.SameCoordinates,Original*
G04 #@! TF.FileFunction,Profile,NP*
%FSLAX46Y46*%
G04 Gerber Fmt 4.6, Leading zero omitted, Abs format (unit mm)*
G04 Created by KiCad (PCBNEW (5.1.8-0-10_14)) date 2021-01-24 00:18:35*
%MOMM*%
%LPD*%
G01*
G04 APERTURE LIST*
G04 #@! TA.AperFunction,Profile*
%ADD10C,0.050000*%
G04 #@! TD*
G04 APERTURE END LIST*
D10*
X115189000Y-112522000D02*
X115062000Y-83566000D01*
X68072000Y-136398000D02*
X80264000Y-136398000D01*
X66548000Y-155448000D02*
X66548000Y-137922000D01*
X107442000Y-156972000D02*
X68072000Y-156972000D01*
X108966000Y-137922000D02*
X108966000Y-155448000D01*
X66548000Y-137922000D02*
G75*
G02*
X68072000Y-136398000I1524000J0D01*
G01*
X68072000Y-156972000D02*
G75*
G02*
X66548000Y-155448000I0J1524000D01*
G01*
X108966000Y-155448000D02*
G75*
G02*
X107442000Y-156972000I-1524000J0D01*
G01*
X94488000Y-136398000D02*
X107442000Y-136398000D01*
X107442000Y-136398000D02*
G75*
G02*
X108966000Y-137922000I0J-1524000D01*
G01*
X115062000Y-77978000D02*
X115062000Y-83566000D01*
X61214000Y-76835000D02*
X113792000Y-76708000D01*
X59690000Y-132588000D02*
X59690000Y-78359000D01*
X61214000Y-134112000D02*
X80264000Y-134366000D01*
X61214000Y-134112000D02*
G75*
G02*
X59690000Y-132588000I0J1524000D01*
G01*
X59690000Y-78359000D02*
G75*
G02*
X61214000Y-76835000I1524000J0D01*
G01*
X113792000Y-76708000D02*
G75*
G02*
X115062000Y-77978000I0J-1270000D01*
G01*
X115316000Y-133096000D02*
G75*
G02*
X114046000Y-134366000I-1270000J0D01*
G01*
X90424000Y-136398000D02*
X84328000Y-136398000D01*
X90424000Y-134366000D02*
X84328000Y-134366000D01*
X115316000Y-133096000D02*
X115189000Y-112522000D01*
X94488000Y-134366000D02*
X114046000Y-134366000D01*
X80264000Y-134366000D02*
G75*
G02*
X80264000Y-136398000I0J-1016000D01*
G01*
X84328000Y-136398000D02*
G75*
G02*
X84328000Y-134366000I0J1016000D01*
G01*
X90424000Y-134366000D02*
G75*
G02*
X90424000Y-136398000I0J-1016000D01*
G01*
X94488000Y-136398000D02*
G75*
G02*
X94488000Y-134366000I0J1016000D01*
G01*
M02*
