M48
; DRILL file {KiCad (5.1.8-0-10_14)} date Sunday, January 24, 2021 at 12:18:37 AM
; FORMAT={-:-/ absolute / inch / decimal}
; #@! TF.CreationDate,2021-01-24T00:18:37+01:00
; #@! TF.GenerationSoftware,Kicad,Pcbnew,(5.1.8-0-10_14)
; #@! TF.FileFunction,Plated,1,2,PTH
FMAT,2
INCH
T1C0.0157
T2C0.0394
T3C0.0472
T4C0.0551
T5C0.0591
T6C0.0709
T7C0.0945
%
G90
G05
T1
X2.4578Y-3.6322
X2.4578Y-3.7172
X2.7882Y-4.3068
X2.7882Y-4.4368
X3.2375Y-4.2975
X3.2872Y-4.9178
X3.3Y-4.36
X3.3722Y-4.9178
T2
X2.48Y-4.29
X2.68Y-4.29
X2.96Y-4.81
X3.26Y-4.81
X3.86Y-4.92
X3.86Y-5.22
X2.73Y-4.95
X2.73Y-5.15
X4.18Y-4.61
X4.18Y-5.01
X4.29Y-4.61
X4.29Y-4.91
X2.72Y-5.64
X3.02Y-5.64
X2.955Y-3.565
X2.955Y-3.665
X4.4Y-4.61
X4.4Y-4.91
X3.81Y-4.5
X3.81Y-4.8
X3.57Y-4.69
X3.57Y-4.79
X3.23Y-4.97
X3.23Y-5.17
X2.51Y-3.4
X2.81Y-3.4
X2.93Y-4.91
X2.93Y-5.21
X3.7Y-4.5
X3.7Y-4.8
X3.03Y-4.19
X3.03Y-4.49
X3.13Y-4.19
X3.13Y-4.49
X3.23Y-4.19
X3.23Y-4.49
X3.33Y-4.19
X3.33Y-4.49
X3.05Y-3.475
X3.05Y-3.775
X3.15Y-3.475
X3.15Y-3.775
X3.25Y-3.475
X3.25Y-3.775
X3.35Y-3.475
X3.35Y-3.775
X3.08Y-4.7
X3.28Y-4.7
X2.985Y-3.265
X3.385Y-3.265
X3.03Y-4.6
X3.33Y-4.6
X4.29Y-5.07
X4.39Y-5.07
X2.51Y-4.45
X2.51Y-4.75
X2.51Y-3.51
X2.81Y-3.51
X3.0Y-4.08
X3.2Y-4.08
X2.985Y-3.37
X3.385Y-3.37
X2.55Y-5.09
X2.55Y-5.19
X2.72Y-4.54
X2.92Y-4.54
X3.42Y-4.98
X3.62Y-4.98
X2.62Y-4.45
X2.62Y-4.75
X3.13Y-4.91
X3.13Y-5.21
X2.55Y-4.88
X2.55Y-4.98
X3.03Y-4.91
X3.03Y-5.21
X3.96Y-4.92
X3.96Y-5.22
X2.89Y-4.28
X2.89Y-4.38
X2.74Y-4.75
X2.84Y-4.75
X4.02Y-5.87
X4.12Y-5.87
X3.41Y-4.69
X3.41Y-4.79
X2.68Y-5.89
X2.78Y-5.79
X2.78Y-5.99
X4.06Y-5.2
X4.26Y-5.2
X2.83Y-4.91
X2.83Y-5.21
X3.325Y-3.88
X3.325Y-4.08
X4.07Y-4.61
X4.07Y-5.01
T3
X3.24Y-5.44
X3.61Y-5.16
X3.77Y-5.44
X3.37Y-5.44
X3.48Y-5.16
X3.775Y-3.11
X3.64Y-5.44
X3.105Y-3.11
X3.74Y-5.16
X3.51Y-5.44
X3.11Y-5.44
X3.895Y-3.11
X3.35Y-5.16
X2.985Y-3.11
T5
X3.5478Y-3.7568
X3.5478Y-3.9832
X3.6609Y-3.5609
X3.6609Y-4.1791
X3.8568Y-3.4478
X3.8568Y-4.2922
X3.8627Y-3.7627
X3.8627Y-3.9773
X4.0773Y-3.7627
X4.0773Y-3.9773
X4.0832Y-3.4478
X4.0832Y-4.2922
X4.2791Y-3.5609
X4.2791Y-4.1791
X4.3922Y-3.7568
X4.3922Y-3.9832
T7
X2.62Y-3.68
X2.62Y-3.8702
X2.62Y-4.0603
X2.8102Y-3.68
X2.8102Y-3.8702
X2.8102Y-4.0603
T4
G00X3.2557Y-3.15
M15
G01X3.2243Y-3.15
M16
G05
G00X3.4557Y-3.15
M15
G01X3.4243Y-3.15
M16
G05
G00X3.6557Y-3.15
M15
G01X3.6243Y-3.15
M16
G05
G00X4.0457Y-3.15
M15
G01X4.0143Y-3.15
M16
G05
G00X4.2457Y-3.15
M15
G01X4.2143Y-3.15
M16
G05
G00X4.4457Y-3.15
M15
G01X4.4143Y-3.15
M16
G05
G00X2.4657Y-3.15
M15
G01X2.4343Y-3.15
M16
G05
G00X2.6657Y-3.15
M15
G01X2.6343Y-3.15
M16
G05
G00X2.8657Y-3.15
M15
G01X2.8343Y-3.15
M16
G05
T6
G00X3.2597Y-5.67
M15
G01X3.2203Y-5.67
M16
G05
G00X3.2597Y-5.87
M15
G01X3.2203Y-5.87
M16
G05
G00X3.2597Y-6.07
M15
G01X3.2203Y-6.07
M16
G05
G00X3.4597Y-5.67
M15
G01X3.4203Y-5.67
M16
G05
G00X3.4597Y-5.87
M15
G01X3.4203Y-5.87
M16
G05
G00X3.4597Y-6.07
M15
G01X3.4203Y-6.07
M16
G05
G00X3.6597Y-5.67
M15
G01X3.6203Y-5.67
M16
G05
G00X3.6597Y-5.87
M15
G01X3.6203Y-5.87
M16
G05
G00X3.6597Y-6.07
M15
G01X3.6203Y-6.07
M16
G05
T0
M30
